# xmcd
#
# Track frame offsets:
#	150
#	13995
#	30607
#	44667
#	58865
#	75396
#	90634
#	106894
#	124157
#	139781
#	153743
#
# Disc length: 2342 seconds
#
# Revision: 1
# Processed by: cddbd v1.5.2PL0 Copyright (c) Steve Scherf et al.
# Submitted via: audiograbber 1.83.01
#
DISCID=9209240b
DTITLE=Nianell - Sand and Water [CD2)
DYEAR=2010
DGENRE=Easy Listening
TTITLE0=Mamma Pappa
TTITLE1=Jy sal nie weet hoe ek voel
TTITLE2=Ek is vrou (Die nasionale voelgoed liedjie)
TTITLE3=Soos 'n kind
TTITLE4=Hou die blink kant bo
TTITLE5=Sal jy onthou
TTITLE6=Wys my jou hart
TTITLE7=Vryheid om te wees
TTITLE8=Kom alles dan tot niks
TTITLE9=Sy word onthou
TTITLE10=Magaliesburgse aandlied
EXTD=
EXTT0=
EXTT1=
EXTT2=Duet met Riana Nel
EXTT3=
EXTT4=
EXTT5=Bonus snit vanaf die album "Life's Gift"
EXTT6=Bonus snit vanaf die album "I know I'm Luky"
EXTT7=Duet met Juanita du plessis and Bonus snit vanaf die album "I know I'm Luky
EXTT7="
EXTT8=Bonus snit vanaf die album "Life's Gift"
EXTT9=
EXTT10=Bonus snit vanaf die album "Life's Gift"
PLAYORDER=
